<svg width="17" height="11" viewBox="0 0 17 11" fill="none" xmlns="http://www.w3.org/2000/svg">
<path d="M1.5 4.85C1.14101 4.85 0.85 5.14101 0.85 5.5C0.85 5.85899 1.14101 6.15 1.5 6.15V4.85ZM15.9596 5.95962C16.2135 5.70578 16.2135 5.29422 15.9596 5.04038L11.823 0.903806C11.5692 0.649965 11.1576 0.649965 10.9038 0.903806C10.65 1.15765 10.65 1.5692 10.9038 1.82304L14.5808 5.5L10.9038 9.17696C10.65 9.4308 10.65 9.84235 10.9038 10.0962C11.1576 10.35 11.5692 10.35 11.823 10.0962L15.9596 5.95962ZM1.5 6.15H15.5V4.85H1.5V6.15Z" fill="#222222"/>
</svg>
