<svg width="9" height="10" viewBox="0 0 9 10" fill="none" xmlns="http://www.w3.org/2000/svg">
<path d="M0.717507 8.18197C0.522245 8.37723 0.522245 8.69381 0.717507 8.88908C0.912769 9.08434 1.22935 9.08434 1.42461 8.88908L0.717507 8.18197ZM8.64213 1.46445C8.64213 1.18831 8.41827 0.964455 8.14213 0.964455L3.64213 0.964455C3.36599 0.964454 3.14213 1.18831 3.14213 1.46445C3.14213 1.7406 3.36599 1.96445 3.64213 1.96445L7.64213 1.96445L7.64213 5.96445C7.64213 6.2406 7.86599 6.46445 8.14213 6.46445C8.41827 6.46445 8.64213 6.2406 8.64213 5.96445L8.64213 1.46445ZM1.42461 8.88908L8.49568 1.81801L7.78857 1.1109L0.717507 8.18197L1.42461 8.88908Z" fill="#222222"/>
</svg>
